<svg xmlns="http://www.w3.org/2000/svg" viewBox="0 0 64 64" id="Sparkle">
  <path d="M51 12a1 1 0 01-1-1V9a1 1 0 012 0v2A1 1 0 0151 12zM49 14H47a1 1 0 010-2h2a1 1 0 010 2zM51 18a1 1 0 01-1-1V15a1 1 0 012 0v2A1 1 0 0151 18zM55 14H53a1 1 0 010-2h2a1 1 0 010 2zM15 48a1 1 0 01-1-1V45a1 1 0 012 0v2A1 1 0 0115 48zM13 50H11a1 1 0 010-2h2a1 1 0 010 2zM15 54a1 1 0 01-1-1V51a1 1 0 012 0v2A1 1 0 0115 54zM19 50H17a1 1 0 010-2h2a1 1 0 010 2zM36 58a1 1 0 01-1-.925c-.056-.737-1.567-18.107-19.224-22.1a1 1 0 010-1.952c17.694-4 19.21-21.917 19.223-22.1A1 1 0 0136 10h0a1 1 0 011 .926c.056.737 1.567 18.107 19.224 22.1a1 1 0 010 1.952c-17.694 4-19.21 21.917-19.223 22.1A1 1 0 0136 58zM19.6 34C30.175 37.774 34.371 46.553 36 52.087 37.629 46.553 41.825 37.774 52.4 34 41.825 30.226 37.629 21.447 36 15.913 34.371 21.447 30.175 30.226 19.6 34zM10 28a1 1 0 01-1-.916 7.221 7.221 0 00-6.2-6.1 1 1 0 010-1.962 7.272 7.272 0 006.2-6.1 1 1 0 011.994 0 7.221 7.221 0 006.2 6.1 1 1 0 010 1.962 7.272 7.272 0 00-6.2 6.1A1 1 0 0110 28zM6.092 20A8.977 8.977 0 0110 23.861 8.977 8.977 0 0113.908 20 8.977 8.977 0 0110 16.139 8.977 8.977 0 016.092 20zM54 56a1 1 0 01-1-.916 7.222 7.222 0 00-6.2-6.1 1 1 0 010-1.962 7.271 7.271 0 006.2-6.1 1 1 0 011.994 0 7.222 7.222 0 006.2 6.1 1 1 0 010 1.962 7.271 7.271 0 00-6.2 6.1A1 1 0 0154 56zm-3.908-8A8.977 8.977 0 0154 51.861 8.977 8.977 0 0157.908 48 8.977 8.977 0 0154 44.139 8.977 8.977 0 0150.092 48z" fill="#ffffff" class="color000000 svgShape"></path>
</svg>